<?xml version="1.0" encoding="utf-8"?>
<!DOCTYPE svg PUBLIC "-//W3C//DTD SVG 1.1//EN" "http://www.w3.org/Graphics/SVG/1.1/DTD/svg11.dtd">
<svg version="1.1" xmlns="http://www.w3.org/2000/svg" xmlns:xlink="http://www.w3.org/1999/xlink" x="0px" y="0px" viewBox="0 0 1000 1000" enable-background="new 0 0 1000 1000" xml:space="preserve">
<g><g transform="translate(0.000000,511.000000) scale(0.100000,-0.100000)"><path fill="#ffffff" d="M3736.5,4249c-40.7-42.9-97.1-119.7-131-169.4c-31.6-47.4-61-88.1-63.2-88.1s-36.1,45.2-76.8,101.6c-40.7,56.5-85.8,101.6-103.9,101.6c-27.1,0-103.9-79.1-158.1-164.9c-18.1-29.4-40.6-31.6-137.8-13.5c-106.1,20.3-135.5,13.5-338.8-58.7c-124.2-45.2-293.6-90.3-377.2-101.6c-83.6-9-169.4-31.6-187.5-47.4c-70-56.5-117.4-194.2-144.5-420.1c-42.9-354.6-18.1-404.3,225.9-458.5c67.8-13.5,142.3-31.6,162.6-36.1c65.5-18.1,216.8-499.1,189.7-603c-6.8-31.6-83.6-137.8-167.1-237.1c-158.1-189.7-275.5-388.5-275.5-469.8c0-24.9-27.1-70-58.7-101.6c-31.6-29.4-94.9-103.9-140-164.9l-81.3-110.7l-76.8,88.1c-40.7,47.4-149.1,189.7-237.1,313.9c-90.3,122-241.7,325.2-336.5,447.2c-164.9,210.1-176.2,230.4-176.2,334.3c0,103.9-9,119.7-101.6,210c-56.5,56.5-101.6,108.4-101.6,119.7c0,70-47.4,286.8-67.8,311.7c-13.5,18.1-54.2,38.4-90.3,45.2c-36.1,9-90.3,33.9-122,58.7c-81.3,63.2-185.2,90.3-253,65.5c-70-27.1-189.7-273.3-207.8-420.1c-13.6-137.8,27.1-223.6,162.6-329.8c146.8-112.9,232.6-228.1,264.3-343.3c13.6-52,108.4-264.3,212.3-476.6c298.1-607.5,688.9-1429.7,688.9-1452.2c0-49.7,377.2-374.9,630.1-544.3l273.3-183l137.8-277.8c153.6-302.7,431.4-722.7,575.9-862.8c49.7-49.7,103.9-115.2,119.7-142.3c33.9-65.5,20.3-311.7-54.2-889.9c-45.2-363.6-56.5-411.1-115.2-494.6c-178.4-253-192-280.1-185.2-359.1l6.8-79l259.7-6.8c431.4-11.3,467.5,24.8,542,508.2c36.1,237.1,76.8,402,135.5,562.4c47.4,126.5,97.1,284.6,110.7,352.3c15.8,70,40.7,142.3,56.5,164.9c27.1,36.2,31.6,36.2,74.5-18.1c36.1-47.4,47.4-108.4,61-298.1c9-131,27.1-264.3,40.7-293.6c13.5-29.4,85.8-101.6,160.4-160.4c74.5-58.7,164.9-153.6,201-210l65.5-103.9l-63.2-15.8c-36.1-9-140-22.6-232.6-31.6c-221.3-18.1-388.5-92.6-438.2-198.8c-54.2-115.2-45.2-144.5,58.7-196.5c83.6-42.9,117.4-47.4,300.4-33.9c110.7,6.8,686.6,18.1,1276.1,24.8c1386.7,11.3,1445.5,18.1,1377.7,146.8c-13.5,27.1-22.6,51.9-18.1,56.5s122-2.2,262-15.8c178.4-15.8,411.1-18.1,779.2,0c623.4,27.1,1400.3-15.8,1468-83.6c61-61-133.2-160.4-417.8-216.8c-180.7-36.1-289.1-90.3-289.1-146.8c0-40.7,122-162.6,205.5-203.3c137.8-72.3,469.8-45.2,641.4,49.7c205.5,115.2,463,388.5,463,494.6c0,83.6-103.9,185.2-291.4,280.1c-185.2,92.6-350.1,115.2-1108.9,146.8c-1323.5,56.5-1639.7,85.8-1736.8,160.4c-61,47.4-67.8,67.8-67.8,178.4c-2.3,67.8,13.6,246.2,31.6,395.2c49.7,390.7,42.9,575.9-45.2,1366.4C6598-261.3,6555.1-37.7,6442.2,231.1c-56.5,135.5-97.1,192-284.6,374.9c-307.2,300.4-512.7,467.5-655,530.8c-67.8,31.6-275.5,99.4-460.7,155.8c-185.2,54.2-354.6,110.7-377.2,122c-61,33.9-108.4,94.9-149.1,205.5c-22.6,56.5-76.8,158.1-126.5,225.9c-131,189.7-140,243.9-97.1,670.8l36.1,370.4l-63.2,194.2c-36.1,108.4-97.1,237.1-140,291.4c-72.3,97.1-74.5,106.1-74.5,311.7c0,219.1-54.2,566.9-94.9,618.8C3908.1,4357.4,3811,4334.8,3736.5,4249z"/></g></g>
</svg>